<svg width="220" height="60" viewBox="0 0 220 60" xmlns="http://www.w3.org/2000/svg">
  <defs>
    <linearGradient id="gold" x1="0%" y1="0%" x2="0%" y2="100%">
      <stop offset="0%" stop-color="#f0d080"/>
      <stop offset="40%" stop-color="#c9922a"/>
      <stop offset="70%" stop-color="#e8b84b"/>
      <stop offset="100%" stop-color="#9a6c1a"/>
    </linearGradient>
    <linearGradient id="goldtxt" x1="0%" y1="0%" x2="100%" y2="0%">
      <stop offset="0%" stop-color="#c8922a"/>
      <stop offset="30%" stop-color="#f0d080"/>
      <stop offset="60%" stop-color="#d4a230"/>
      <stop offset="100%" stop-color="#9a6c1a"/>
    </linearGradient>
  </defs>
  <g transform="translate(34, 30)">
    <polygon points="0,-3 22,12 -22,12" fill="none" stroke="url(#gold)" stroke-width="0.8"/>
    <rect x="-1" y="-28" width="2" height="31" fill="url(#gold)"/>
    <rect x="-26" y="-28" width="52" height="1.6" rx="0.8" fill="url(#gold)"/>
    <line x1="-19" y1="-26" x2="-19" y2="-12" stroke="url(#gold)" stroke-width="0.9"/>
    <line x1="-26" y1="-11" x2="-12" y2="-11" stroke="url(#gold)" stroke-width="1"/>
    <line x1="19" y1="-26" x2="19" y2="-12" stroke="url(#gold)" stroke-width="0.9"/>
    <line x1="12" y1="-11" x2="26" y2="-11" stroke="url(#gold)" stroke-width="1"/>
    <circle cx="-7" cy="-35" r="2.6" fill="url(#gold)"/>
    <circle cx="0" cy="-41" r="2.6" fill="url(#gold)"/>
    <circle cx="7" cy="-35" r="2.6" fill="url(#gold)"/>
    <circle cx="0" cy="-28" r="3" fill="url(#gold)"/>
    <circle cx="0" cy="-28" r="1.3" fill="#0a0a0f"/>
    <rect x="-26" y="10" width="52" height="1.8" rx="0.9" fill="url(#gold)"/>
  </g>
  <line x1="68" y1="8" x2="68" y2="52" stroke="#2a2010" stroke-width="0.5"/>
  <text x="80" y="36" font-family="'Cinzel','Times New Roman',serif" font-size="26" font-weight="400" fill="url(#goldtxt)" letter-spacing="6">TABIT</text>
  <text x="80" y="50" font-family="'Cinzel',serif" font-size="6.5" fill="#c9922a" letter-spacing="3.5" opacity="0.8">PRIX FIXES · ثابت</text>
</svg>
